<svg t="1647831397778" class="icon" viewBox="0 0 1024 1024" version="1.1" xmlns="http://www.w3.org/2000/svg" p-id="2465" width="32" height="32"><path d="M0 0h1024v1024H0z" fill="#FFFFFF" p-id="2466"></path><path d="M944 250H80c-27.57 0-50-22.43-50-50V80c0-27.57 22.43-50 50-50h864c27.57 0 50 22.43 50 50v120c0 27.57-22.43 50-50 50z" fill="#D8DDE3" p-id="2467"></path><path d="M80 60c-11.028 0-20 8.972-20 20v120c0 11.028 8.972 20 20 20h864c11.028 0 20-8.972 20-20V80c0-11.028-8.972-20-20-20H80m0-60h864c44.182 0 80 35.818 80 80v120c0 44.182-35.818 80-80 80H80c-44.182 0-80-35.818-80-80V80C0 35.818 35.818 0 80 0z" fill="#505873" p-id="2468"></path><path d="M944 622H80c-27.57 0-50-22.43-50-50v-120c0-27.57 22.43-50 50-50h864c27.57 0 50 22.43 50 50v120c0 27.57-22.43 50-50 50z" fill="#FFFFFF" p-id="2469"></path><path d="M80 432c-11.028 0-20 8.972-20 20v120c0 11.028 8.972 20 20 20h864c11.028 0 20-8.972 20-20v-120c0-11.028-8.972-20-20-20H80m0-60h864c44.182 0 80 35.818 80 80v120c0 44.182-35.818 80-80 80H80c-44.182 0-80-35.818-80-80v-120c0-44.182 35.818-80 80-80z" fill="#505873" p-id="2470"></path><path d="M944 994H80c-27.57 0-50-22.43-50-50v-120c0-27.57 22.43-50 50-50h864c27.57 0 50 22.43 50 50v120c0 27.57-22.43 50-50 50z" fill="#D8DDE3" p-id="2471"></path><path d="M80 804c-11.028 0-20 8.972-20 20v120c0 11.028 8.972 20 20 20h864c11.028 0 20-8.972 20-20v-120c0-11.028-8.972-20-20-20H80m0-60h864c44.182 0 80 35.818 80 80v120c0 44.182-35.818 80-80 80H80c-44.182 0-80-35.818-80-80v-120c0-44.182 35.818-80 80-80z" fill="#505873" p-id="2472"></path><path d="M708 100h156a40 40 0 0 1 0 80h-156a40 40 0 0 1 0-80z" fill="#505873" p-id="2473"></path><path d="M708 472h156a40 40 0 0 1 0 80h-156a40 40 0 0 1 0-80z" fill="#FF402A" p-id="2474"></path><path d="M708 844h156a40 40 0 0 1 0 80h-156a40 40 0 0 1 0-80z" fill="#505873" p-id="2475"></path></svg>