<?xml version="1.0" encoding="utf-8"?>
<!-- Generator: Adobe Illustrator 24.0.1, SVG Export Plug-In . SVG Version: 6.00 Build 0)  -->
<svg version="1.1" id="图层_1" xmlns="http://www.w3.org/2000/svg" xmlns:xlink="http://www.w3.org/1999/xlink" x="0px" y="0px"
	 viewBox="0 0 40 40" style="enable-background:new 0 0 40 40;" xml:space="preserve">
<style type="text/css">
	.st0{fill:#003756;}
	.st1{fill:#0079C2;}
</style>
<g>
	<rect x="19.5" class="st0" width="1" height="10.4"/>
</g>
<g>
	<g>
		<g>
			<path class="st1" d="M24,32.8c-3.6,0-4.3-4.2-4.9-8c-0.6-3.4-1.1-6.7-3.5-6.7c-1.4,0-2.5,0.4-3.3,1.3c-1.5,1.7-1.2,4.5-1.2,4.6
				l-1,0.1c0-0.1-0.4-3.3,1.4-5.3c1-1.1,2.3-1.6,4-1.6c3.2,0,3.8,3.8,4.5,7.5c0.6,3.7,1.2,7.2,4,7.2c3.6,0,4.9-2.5,4.9-4.8h1
				C29.9,29.7,28.4,32.8,24,32.8z"/>
		</g>
		<g>
			<path class="st0" d="M20,40c-6.6,0-12.3-4.2-14.3-10.5l0.9-0.3C8.5,35,13.8,39,20,39c6.1,0,11.4-3.9,13.3-9.7l0.9,0.3
				C32.2,35.8,26.5,40,20,40z"/>
		</g>
		<g>
			<path class="st0" d="M33.3,20.7C31.4,14.9,26.1,11,20,11c-6.1,0-11.4,3.9-13.3,9.7l-0.9-0.3C7.8,14.2,13.5,10,20,10
				c6.5,0,12.2,4.1,14.2,10.3L33.3,20.7z"/>
		</g>
	</g>
</g>
</svg>
