<?xml version="1.0" encoding="utf-8"?>
<!-- Generator: Adobe Illustrator 23.0.1, SVG Export Plug-In . SVG Version: 6.00 Build 0)  -->
<svg version="1.1" id="图层_1" xmlns="http://www.w3.org/2000/svg" xmlns:xlink="http://www.w3.org/1999/xlink" x="0px" y="0px"
	 viewBox="0 0 24.7 19.2" style="enable-background:new 0 0 24.7 19.2;" xml:space="preserve">
<style type="text/css">
	.st0{fill:none;stroke:#003756;stroke-miterlimit:10;}
	.st1{fill:none;stroke:#0079C2;stroke-linejoin:round;stroke-miterlimit:10;}
</style>
<g>
	<path class="st0" d="M20.4,18.6h-16c-0.6,0-1-0.4-1-1v-16c0-0.6,0.4-1,1-1h16c0.6,0,1,0.4,1,1v16C21.4,18.2,20.9,18.6,20.4,18.6z"
		/>
	<line class="st0" x1="3.4" y1="5.4" x2="0.1" y2="5.4"/>
	<line class="st0" x1="3.4" y1="13.8" x2="0.1" y2="13.8"/>
	<line class="st0" x1="24.6" y1="5.4" x2="21.4" y2="5.4"/>
	<line class="st0" x1="24.6" y1="13.8" x2="21.4" y2="13.8"/>
	<g>
		<g>
			<line class="st1" x1="5.6" y1="3.3" x2="10.3" y2="3.3"/>
			<line class="st1" x1="5.6" y1="6" x2="10.3" y2="6"/>
		</g>
		<g>
			<line class="st1" x1="14.4" y1="13.3" x2="19.1" y2="13.3"/>
			<line class="st1" x1="14.4" y1="15.9" x2="19.1" y2="15.9"/>
		</g>
	</g>
	<line class="st1" x1="19.4" y1="2.8" x2="5.3" y2="16.4"/>
</g>
</svg>
