<?xml version="1.0" encoding="utf-8"?>
<!-- Generator: Adobe Illustrator 24.0.1, SVG Export Plug-In . SVG Version: 6.00 Build 0)  -->
<svg version="1.1" id="图层_1" xmlns="http://www.w3.org/2000/svg" xmlns:xlink="http://www.w3.org/1999/xlink" x="0px" y="0px"
	 viewBox="0 0 40 40" style="enable-background:new 0 0 40 40;" xml:space="preserve">
<style type="text/css">
	.st0{fill:#003756;}
	.st1{fill:none;stroke:#003756;stroke-miterlimit:10;}
	.st2{fill:none;stroke:#0079C2;stroke-linejoin:round;stroke-miterlimit:10;}
</style>
<g>
	<path class="st0" d="M32.8,6.2c0.6,0,1,0.4,1,1v25.7c0,0.6-0.4,1-1,1H7.2c-0.6,0-1-0.4-1-1V7.2c0-0.6,0.4-1,1-1H32.8 M32.8,5.2H7.2
		c-1.1,0-2,0.9-2,2v25.7c0,1.1,0.9,2,2,2h25.7c1.1,0,2-0.9,2-2V7.2C34.8,6.1,33.9,5.2,32.8,5.2L32.8,5.2z"/>
</g>
<line class="st1" x1="5.7" y1="20" x2="0" y2="20"/>
<line class="st1" x1="20" y1="5.7" x2="20" y2="0"/>
<line class="st1" x1="20" y1="40" x2="20" y2="34.4"/>
<g>
	<rect x="1" y="19.8" transform="matrix(0.3107 -0.9505 0.9505 0.3107 -16.914 16.5289)" class="st0" width="3.8" height="0.3"/>
	
		<rect x="-0.1" y="19.8" transform="matrix(0.3107 -0.9505 0.9505 0.3107 -17.6846 15.4771)" class="st0" width="3.8" height="0.3"/>
	
		<rect x="-1.2" y="19.8" transform="matrix(0.3107 -0.9505 0.9505 0.3107 -18.4551 14.4251)" class="st0" width="3.8" height="0.3"/>
</g>
<g>
	<rect x="19.9" y="-1.2" transform="matrix(0.3107 -0.9505 0.9505 0.3107 13.1745 19.5342)" class="st0" width="0.3" height="3.8"/>
</g>
<g>
	
		<rect x="19.9" y="37.3" transform="matrix(0.3107 -0.9505 0.9505 0.3107 -23.4682 46.0871)" class="st0" width="0.3" height="3.8"/>
</g>
<g>
	<g>
		<polygon class="st2" points="20,16.7 11.1,30 28.9,30 		"/>
		<line class="st2" x1="20" y1="10" x2="20" y2="16.8"/>
		<line class="st2" x1="29.7" y1="16.7" x2="10.3" y2="16.7"/>
	</g>
</g>
</svg>
