<?xml version="1.0" encoding="utf-8"?>
<!-- Generator: Adobe Illustrator 23.0.1, SVG Export Plug-In . SVG Version: 6.00 Build 0)  -->
<svg version="1.1" id="图层_1" xmlns="http://www.w3.org/2000/svg" xmlns:xlink="http://www.w3.org/1999/xlink" x="0px" y="0px"
	 viewBox="0 0 24.4 23.8" style="enable-background:new 0 0 24.4 23.8;" xml:space="preserve">
<style type="text/css">
	.st0{fill:none;stroke:#003756;stroke-linejoin:round;stroke-miterlimit:10;}
	.st1{clip-path:url(#SVGID_2_);}
</style>
<g>
	<rect x="0.6" y="5.2" class="st0" width="23" height="18"/>
	<g>
		<defs>
			<rect id="SVGID_1_" x="0.6" y="5.2" width="23" height="18"/>
		</defs>
		<clipPath id="SVGID_2_">
			<use xlink:href="#SVGID_1_"  style="overflow:visible;"/>
		</clipPath>
		<g class="st1">
			<line class="st0" x1="-17.4" y1="22.3" x2="32.1" y2="-27.2"/>
			<line class="st0" x1="-12" y1="26.8" x2="37.4" y2="-22.6"/>
			<line class="st0" x1="-7.5" y1="32.2" x2="42" y2="-17.3"/>
			<line class="st0" x1="-2.1" y1="36.7" x2="47.3" y2="-12.8"/>
			<line class="st0" x1="2.4" y1="42.1" x2="51.9" y2="-7.4"/>
			<line class="st0" x1="7.8" y1="46.6" x2="57.2" y2="-2.9"/>
			<line class="st0" x1="12.3" y1="52" x2="61.8" y2="2.5"/>
			<line class="st0" x1="17.7" y1="56.5" x2="67.1" y2="7"/>
			<line class="st0" x1="17.3" y1="-27.6" x2="66.8" y2="21.9"/>
			<line class="st0" x1="12.7" y1="-22.3" x2="62.2" y2="27.2"/>
			<line class="st0" x1="7.4" y1="-17.7" x2="56.9" y2="31.8"/>
			<line class="st0" x1="2.8" y1="-12.4" x2="52.3" y2="37.1"/>
			<line class="st0" x1="-2.5" y1="-7.8" x2="47" y2="41.7"/>
			<line class="st0" x1="-7.1" y1="-2.5" x2="42.4" y2="47"/>
			<line class="st0" x1="-12.4" y1="2.1" x2="37.1" y2="51.6"/>
			<line class="st0" x1="-17" y1="7.4" x2="32.5" y2="56.9"/>
		</g>
	</g>
	<line class="st0" x1="12.1" y1="0.2" x2="12.1" y2="5.2"/>
</g>
</svg>
