<?xml version="1.0" encoding="utf-8"?>
<!-- Generator: Adobe Illustrator 25.3.1, SVG Export Plug-In . SVG Version: 6.00 Build 0)  -->
<svg version="1.1" id="图层_1" xmlns="http://www.w3.org/2000/svg" xmlns:xlink="http://www.w3.org/1999/xlink" x="0px" y="0px"
	 viewBox="0 0 40 10" style="enable-background:new 0 0 40 10;" xml:space="preserve">
<style type="text/css">
	.st0{fill-rule:evenodd;clip-rule:evenodd;fill:#003756;}
</style>
<g id="什么管_xFF1F_">
	<path id="形状结合" class="st0" d="M35.5,2.5c0.1,0,0.1,0,0.1,0c0.8,0.1,1.4,0.9,1.5,2l2.8,0v1l-2.8,0c-0.1,1-0.7,1.8-1.5,2
		c0,0,0,0-0.1,0l-0.1,0h-31l-0.1,0c0,0,0,0-0.1,0c-0.9,0-1.6-0.9-1.7-2L0,5.5v-1l2.6,0c0.2-1.1,0.9-2,1.7-2l0.1,0l0.1,0H35.5z
		 M34,3.5l-28.2,0c0,0,0,0,0,0l-1.4,0C4,3.5,3.6,4.1,3.6,5S4,6.5,4.4,6.5l1.4,0l0,0l28.2,0c-0.2-0.4-0.4-0.9-0.4-1.5
		S33.8,3.9,34,3.5z M35.4,3.5c-0.3,0-0.8,0.6-0.8,1.5s0.4,1.5,0.8,1.5c0.3,0,0.6-0.4,0.7-1l-0.4,0c-0.3,0-0.5-0.2-0.5-0.5
		s0.2-0.5,0.5-0.5l0.4,0C36,3.9,35.7,3.5,35.4,3.5z"/>
</g>
</svg>
