<?xml version="1.0" encoding="utf-8"?>
<!-- Generator: Adobe Illustrator 24.0.1, SVG Export Plug-In . SVG Version: 6.00 Build 0)  -->
<svg version="1.1" id="图层_1" xmlns="http://www.w3.org/2000/svg" xmlns:xlink="http://www.w3.org/1999/xlink" x="0px" y="0px"
	 viewBox="0 0 60 40" style="enable-background:new 0 0 60 40;" xml:space="preserve">
<style type="text/css">
	.st0{fill:none;stroke:#003756;}
	.st1{fill:none;stroke:#0079C2;stroke-linecap:round;stroke-linejoin:round;}
	.st2{fill:none;stroke:#0079C2;stroke-linejoin:round;}
	.st3{fill:#003756;}
	.st4{font-family:'Microsoft YaHei UI';}
	.st5{font-size:10px;}
</style>
<g id="NonidealTwoWindingTransformer-_x28_3_x29_">
	
		<g id="NonidealTwoWindingTransformer_270" transform="translate(30.000000, 17.098516) rotate(-270.000000) translate(-30.000000, -17.098516) translate(14.067550, -12.901484)">
		<g id="编组" transform="translate(5.864900, 0.000000)">
			<circle id="椭圆形" class="st0" cx="13" cy="20.2" r="13"/>
			<circle id="椭圆形_1_" class="st0" cx="13" cy="39.6" r="13"/>
			<line id="路径" class="st0" x1="13" y1="7.6" x2="13" y2="0"/>
			<line id="路径_1_" class="st0" x1="13" y1="60" x2="13" y2="52.6"/>
			<g id="路径_2_" transform="translate(8.200000, 16.000000)">
				<line class="st1" x1="4.8" y1="2.7" x2="4.8" y2="8.4"/>
				<line class="st1" x1="4.8" y1="2.7" x2="9.6" y2="0"/>
				<line class="st1" x1="4.8" y1="2.7" x2="0" y2="0"/>
			</g>
			<polygon id="路径_3_" class="st2" points="17.8,43.8 8.2,43.8 13,35.4 			"/>
		</g>
		<g id="HL3" transform="translate(0.000000, 2.000100)">
			<text transform="matrix(-1 0 0 -1 10.8562 9.701265e-02)" class="st3 st4 st5">H</text>
			<text transform="matrix(-1 0 0 -1 9.5564 50.4238)" class="st3 st4 st5">L</text>
		</g>
	</g>
</g>
</svg>
