<?xml version="1.0" encoding="utf-8"?>
<!-- Generator: Adobe Illustrator 23.0.1, SVG Export Plug-In . SVG Version: 6.00 Build 0)  -->
<svg version="1.1" id="图层_1" xmlns="http://www.w3.org/2000/svg" xmlns:xlink="http://www.w3.org/1999/xlink" x="0px" y="0px"
	 viewBox="0 0 23.4 25.6" style="enable-background:new 0 0 23.4 25.6;" xml:space="preserve">
<style type="text/css">
	.st0{fill:none;stroke:#003756;stroke-miterlimit:10;}
	.st1{fill:none;stroke:#0079C2;stroke-miterlimit:10;}
	.st2{fill:none;stroke:#0079C2;stroke-linejoin:round;stroke-miterlimit:10;}
</style>
<g>
	<g>
		<line class="st0" x1="12.8" y1="2.8" x2="12.8" y2="0.2"/>
	</g>
	<g>
		<line class="st0" x1="12.8" y1="25.5" x2="12.8" y2="22.8"/>
	</g>
	<line class="st1" x1="2.4" y1="6.5" x2="22.8" y2="6.5"/>
	<line class="st1" x1="2.5" y1="19.1" x2="22.8" y2="19.1"/>
	<polyline class="st2" points="13.4,19.1 8.7,6.6 4,19.1 	"/>
	<polyline class="st2" points="20,6.5 15.4,19.1 10.7,6.5 	"/>
	<line class="st2" x1="18.1" y1="11.8" x2="22.8" y2="11.8"/>
	<line class="st2" x1="22.8" y1="15.4" x2="16.7" y2="15.4"/>
	<line class="st1" x1="12.8" y1="6.5" x2="12.8" y2="2.8"/>
	<line class="st1" x1="12.8" y1="22.8" x2="12.8" y2="19.1"/>
	<path class="st0" d="M21.8,22.8h-18c-0.6,0-1-0.4-1-1v-18c0-0.6,0.4-1,1-1h18c0.6,0,1,0.4,1,1v18C22.8,22.4,22.3,22.8,21.8,22.8z"
		/>
	<g>
		<line class="st0" x1="2.8" y1="12.8" x2="0.1" y2="12.8"/>
	</g>
</g>
</svg>
