<?xml version="1.0" encoding="utf-8"?>
<!-- Generator: Adobe Illustrator 24.0.1, SVG Export Plug-In . SVG Version: 6.00 Build 0)  -->
<svg version="1.1" id="图层_1" xmlns="http://www.w3.org/2000/svg" xmlns:xlink="http://www.w3.org/1999/xlink" x="0px" y="0px"
	 viewBox="0 0 40 40" style="enable-background:new 0 0 40 40;" xml:space="preserve">
<style type="text/css">
	.st0{fill:#003756;}
	.st1{fill:none;stroke:#003756;stroke-miterlimit:10;}
	.st2{fill:#0079C2;}
	.st3{font-family:'Microsoft YaHei UI';}
	.st4{font-size:12px;}
	.st5{font-size:8px;}
</style>
<g>
	<g>
		<path class="st0" d="M20,11.1c7.7,0,14,6.3,14,14s-6.3,14-14,14S6,32.7,6,25S12.3,11.1,20,11.1 M20,10.1c-8.3,0-15,6.7-15,15
			s6.7,15,15,15s15-6.7,15-15S28.3,10.1,20,10.1L20,10.1z"/>
	</g>
	<line class="st1" x1="20" y1="0" x2="20" y2="10.7"/>
</g>
<text transform="matrix(1 0 0 1 12.0752 25.41)" class="st2 st3 st4">SG</text>
<text transform="matrix(1 0 0 1 10.6543 34.1415)" class="st2 st3 st5">CIPD</text>
</svg>
