<?xml version="1.0" encoding="utf-8"?>
<!-- Generator: Adobe Illustrator 24.0.1, SVG Export Plug-In . SVG Version: 6.00 Build 0)  -->
<svg version="1.1" id="图层_1" xmlns="http://www.w3.org/2000/svg" xmlns:xlink="http://www.w3.org/1999/xlink" x="0px" y="0px"
	 viewBox="0 0 40 40" style="enable-background:new 0 0 40 40;" xml:space="preserve">
<style type="text/css">
	.st0{fill:none;stroke:#003756;stroke-miterlimit:10;}
	.st1{fill:#0079C2;}
	.st2{font-family:'MicrosoftYaHeiUI';}
	.st3{font-size:17.8545px;}
</style>
<g>
	<line class="st0" x1="20" y1="0" x2="20" y2="5"/>
	<circle class="st0" cx="20" cy="20" r="15"/>
	<line class="st0" x1="20" y1="35" x2="20" y2="40"/>
</g>
<text transform="matrix(-6.123234e-17 -1 1 -6.123234e-17 24.4208 26.0343)" class="st1 st2 st3">V</text>
<g>
	<g>
		<path class="st1" d="M30.7,17.6c0,1-0.4,1.9-1.3,2.9c-0.8,0.9-1.2,1.8-1,2.6c0.3,1.4,2.1,2.1,2.2,2.1l-0.4,1.1
			c-0.1,0-2.4-1-2.9-2.9c-0.3-1.2,0.2-2.4,1.3-3.6c0.8-0.9,1.1-1.8,1-2.5c-0.3-1.5-2.4-2.4-2.4-2.4l0.5-1.1c0.1,0,2.6,1.2,3.1,3.3
			C30.7,17.1,30.7,17.4,30.7,17.6z"/>
	</g>
</g>
</svg>
