<?xml version="1.0" encoding="utf-8"?>
<!-- Generator: Adobe Illustrator 24.0.1, SVG Export Plug-In . SVG Version: 6.00 Build 0)  -->
<svg version="1.1" id="图层_1" xmlns="http://www.w3.org/2000/svg" xmlns:xlink="http://www.w3.org/1999/xlink" x="0px" y="0px"
	 viewBox="0 0 40 40" style="enable-background:new 0 0 40 40;" xml:space="preserve">
<style type="text/css">
	.st0{fill:none;stroke:#003756;stroke-miterlimit:10;}
	.st1{fill:#0079C2;}
	.st2{font-family:'MicrosoftYaHeiUI';}
	.st3{font-size:17.8545px;}
</style>
<g>
	<line class="st0" x1="20" y1="0" x2="20" y2="5"/>
	<circle class="st0" cx="20" cy="20" r="15"/>
	<line class="st0" x1="20" y1="35" x2="20" y2="40"/>
</g>
<text transform="matrix(-1 0 0 -1 26.0342 15.5792)" class="st1 st2 st3">V</text>
<g>
	<g>
		<path class="st1" d="M17.6,9.3c1,0,1.9,0.4,2.9,1.3c0.9,0.8,1.8,1.2,2.6,1c1.4-0.3,2.1-2.1,2.1-2.2l1.1,0.4c0,0.1-1,2.4-2.9,2.9
			c-1.2,0.3-2.4-0.2-3.6-1.3c-0.9-0.8-1.8-1.1-2.5-1c-1.5,0.3-2.4,2.4-2.4,2.4l-1.1-0.5c0-0.1,1.2-2.6,3.3-3.1
			C17.1,9.3,17.4,9.3,17.6,9.3z"/>
	</g>
</g>
</svg>
