<?xml version="1.0" encoding="utf-8"?>
<!-- Generator: Adobe Illustrator 24.0.1, SVG Export Plug-In . SVG Version: 6.00 Build 0)  -->
<svg version="1.1" id="图层_1" xmlns="http://www.w3.org/2000/svg" xmlns:xlink="http://www.w3.org/1999/xlink" x="0px" y="0px"
	 viewBox="0 0 40 40" style="enable-background:new 0 0 40 40;" xml:space="preserve">
<style type="text/css">
	.st0{fill:none;stroke:#003756;stroke-miterlimit:10;}
	.st1{fill:#0079C2;}
	.st2{font-family:'MicrosoftYaHeiUI';}
	.st3{font-size:17.8545px;}
</style>
<g>
	<line class="st0" x1="20" y1="0" x2="20" y2="5"/>
	<circle class="st0" cx="20" cy="20" r="15"/>
	<line class="st0" x1="20" y1="35" x2="20" y2="40"/>
</g>
<text transform="matrix(1 0 0 1 13.9658 24.4202)" class="st1 st2 st3">V</text>
<g>
	<g>
		<path class="st1" d="M22.4,30.7c-1,0-1.9-0.4-2.9-1.3c-0.9-0.8-1.8-1.2-2.6-1c-1.4,0.3-2.1,2.1-2.1,2.2l-1.1-0.4
			c0-0.1,1-2.4,2.9-2.9c1.2-0.3,2.4,0.2,3.6,1.3c0.9,0.8,1.8,1.1,2.5,1c1.5-0.3,2.4-2.4,2.4-2.4l1.1,0.5c0,0.1-1.2,2.6-3.3,3.1
			C22.9,30.7,22.6,30.7,22.4,30.7z"/>
	</g>
</g>
</svg>
