<?xml version="1.0" encoding="utf-8"?>
<!-- Generator: Adobe Illustrator 24.0.1, SVG Export Plug-In . SVG Version: 6.00 Build 0)  -->
<svg version="1.1" id="图层_1" xmlns="http://www.w3.org/2000/svg" xmlns:xlink="http://www.w3.org/1999/xlink" x="0px" y="0px"
	 viewBox="0 0 40 40" style="enable-background:new 0 0 40 40;" xml:space="preserve">
<style type="text/css">
	.st0{fill:#E6ECF5;}
	.st1{fill:none;}
	.st2{fill:#FFFFFF;}
	.st3{fill:#003756;}
	.st4{fill:#35405C;}
	.st5{fill:#F4F4F4;}
	.st6{fill:#FFFFFF;stroke:#231815;stroke-miterlimit:10;}
	.st7{fill:#E50012;}
	.st8{fill:#ABBED2;}
	.st9{fill:#F9EDED;}
	.st10{fill:#BBC3C7;}
	.st11{fill:#70BDF6;}
	.st12{fill:#CCF2FF;}
	.st13{fill:#EEF5FB;}
	.st14{fill:#EFEFEF;}
	.st15{fill:url(#SVGID_1_);}
	.st16{fill:#23AAEA;fill-opacity:0.36;stroke:#FFFFFF;stroke-width:4;stroke-miterlimit:10;}
	.st17{fill:#26CAEF;}
	.st18{fill:#00345B;}
	.st19{fill:#455B6D;}
	.st20{fill:#3E3A39;}
	.st21{fill:#003D74;}
	.st22{opacity:0.7;}
	.st23{fill:#0D5E9B;}
	.st24{fill:#CACACA;}
	.st25{fill:#013983;}
	.st26{fill-rule:evenodd;clip-rule:evenodd;fill:#D7000F;}
	.st27{fill:#231815;}
	.st28{fill:#D7000F;}
	.st29{fill-rule:evenodd;clip-rule:evenodd;fill:#003D74;}
	.st30{fill-rule:evenodd;clip-rule:evenodd;fill:#35405C;}
	.st31{fill-rule:evenodd;clip-rule:evenodd;fill:#0D5E9B;}
	.st32{fill-rule:evenodd;clip-rule:evenodd;fill:#CACACA;}
	.st33{fill:none;stroke:#CACACA;stroke-width:1.0444;stroke-miterlimit:10;}
	.st34{fill:none;stroke:#35405C;stroke-width:1.0625;stroke-linecap:round;stroke-linejoin:round;stroke-miterlimit:10;}
	.st35{fill:none;stroke:#35405C;stroke-linecap:round;stroke-linejoin:round;stroke-miterlimit:10;}
	.st36{fill:#CBE6F4;stroke:#23AAEA;stroke-miterlimit:10;}
	.st37{fill:none;stroke:#FFFFFF;stroke-miterlimit:10;}
	.st38{fill:none;stroke:#35405C;stroke-width:1.5;stroke-linecap:round;stroke-linejoin:round;stroke-miterlimit:10;}
	.st39{fill:#036EB7;}
	.st40{fill:none;stroke:#003D74;stroke-width:1.5;stroke-linecap:round;stroke-linejoin:round;stroke-miterlimit:10;}
	.st41{fill:none;stroke:#CACACA;stroke-width:1.5;stroke-linecap:round;stroke-linejoin:round;stroke-miterlimit:10;}
	.st42{opacity:0.5;}
	.st43{fill:#FF1D25;}
	.st44{fill:none;stroke:#FFFFFF;stroke-width:1.5;stroke-linecap:round;stroke-linejoin:round;stroke-miterlimit:10;}
	.st45{fill:none;stroke:#35405C;stroke-width:1.5;stroke-miterlimit:10;}
	.st46{fill:none;stroke:#CACACA;stroke-width:1.5;stroke-miterlimit:10;}
	.st47{fill:none;stroke:#003D74;stroke-width:1.5;stroke-miterlimit:10;}
	.st48{fill:none;stroke:#35405C;stroke-width:2;stroke-linecap:round;stroke-linejoin:round;stroke-miterlimit:10;}
	.st49{fill:none;stroke:#35405C;stroke-width:1.5;stroke-linecap:round;stroke-linejoin:round;}
	.st50{fill:none;stroke:#35405C;stroke-width:1.5;stroke-linecap:round;stroke-linejoin:round;stroke-dasharray:3.1466,3.1466;}
	
		.st51{fill:none;stroke:#003D74;stroke-width:1.5;stroke-linecap:round;stroke-linejoin:round;stroke-miterlimit:10;stroke-dasharray:3;}
	
		.st52{fill:none;stroke:#CACACA;stroke-width:1.5;stroke-linecap:round;stroke-linejoin:round;stroke-miterlimit:10;stroke-dasharray:3;}
	.st53{fill:none;stroke:#CACACA;stroke-width:1.5;stroke-linecap:round;stroke-linejoin:round;}
	.st54{fill:none;stroke:#CACACA;stroke-width:1.5;stroke-linecap:round;stroke-linejoin:round;stroke-dasharray:3.1466,3.1466;}
	.st55{fill:none;stroke:#003D74;stroke-width:1.5;stroke-linecap:round;stroke-linejoin:round;}
	.st56{fill:none;stroke:#003D74;stroke-width:1.5;stroke-linecap:round;stroke-linejoin:round;stroke-dasharray:3.1466,3.1466;}
	.st57{fill:none;stroke:#35405C;stroke-miterlimit:10;}
	.st58{fill:none;stroke:#CACACA;stroke-miterlimit:10;}
	.st59{fill:none;stroke:#003D74;stroke-miterlimit:10;}
	.st60{fill:none;stroke:#35405C;stroke-width:3;stroke-linecap:round;stroke-linejoin:round;stroke-miterlimit:10;}
	.st61{fill:none;stroke:#003D74;stroke-width:3;stroke-linecap:round;stroke-linejoin:round;stroke-miterlimit:10;}
	.st62{fill:none;stroke:#CACACA;stroke-width:3;stroke-linecap:round;stroke-linejoin:round;stroke-miterlimit:10;}
	.st63{fill:none;stroke:#036EB7;stroke-width:1.5;stroke-linecap:round;stroke-linejoin:round;stroke-miterlimit:10;}
	.st64{fill:none;stroke:#35405C;stroke-width:1.5;stroke-linecap:round;stroke-linejoin:round;stroke-dasharray:3.0397,3.0397;}
	.st65{fill:none;stroke:#CACACA;stroke-width:1.5;stroke-linecap:round;stroke-linejoin:round;stroke-dasharray:3.0397,3.0397;}
	.st66{fill:none;stroke:#003D74;stroke-width:1.5;stroke-linecap:round;stroke-linejoin:round;stroke-dasharray:3.0397,3.0397;}
	
		.st67{fill:none;stroke:#35405C;stroke-width:1.5;stroke-linecap:round;stroke-linejoin:round;stroke-miterlimit:10;stroke-dasharray:3;}
	.st68{fill:#5E3819;}
	.st69{opacity:0.38;fill:#013983;}
	.st70{opacity:0.38;fill:#7FB977;}
	.st71{fill:url(#SVGID_2_);}
	.st72{fill:#1EA1DB;}
	.st73{fill:url(#SVGID_3_);}
	.st74{fill:url(#SVGID_4_);}
	.st75{fill:url(#SVGID_5_);}
	.st76{fill:#23AAEA;}
	.st77{fill:none;stroke:#FFFFFF;stroke-width:4;stroke-linecap:round;stroke-linejoin:round;stroke-miterlimit:10;}
	.st78{fill:url(#SVGID_6_);}
	.st79{fill:#C8C9CA;}
	.st80{fill:url(#SVGID_7_);}
	.st81{fill:url(#SVGID_8_);}
	.st82{fill:url(#SVGID_9_);}
	.st83{fill:#666666;}
	.st84{opacity:0.7;fill:none;}
	.st85{fill-rule:evenodd;clip-rule:evenodd;fill:#FFFFFF;}
	.st86{opacity:0.7;fill:#35405C;}
	.st87{fill:none;stroke:#FFFFFF;stroke-linejoin:round;stroke-miterlimit:10;}
	.st88{fill:#3A445C;}
	.st89{fill:#E0A420;}
	.st90{fill:#A01029;}
	.st91{fill:#333333;}
	.st92{fill:#808080;}
	.st93{fill:#4D789E;}
	.st94{fill:#EEEEEF;}
	.st95{fill:#6EADD7;}
	.st96{fill:#EA737D;}
	.st97{clip-path:url(#SVGID_11_);}
	.st98{clip-path:url(#SVGID_13_);}
	.st99{clip-path:url(#SVGID_15_);}
	.st100{fill:#0079C2;}
	.st101{fill:#EFEFEF;stroke:#E50012;stroke-miterlimit:10;}
	.st102{fill:#E5E5E5;}
	.st103{fill:#E5E5E5;stroke:#000000;stroke-miterlimit:10;}
	.st104{fill:#19447D;}
	.st105{fill:#145A8E;}
	.st106{fill:#B70E24;}
	.st107{opacity:0.5;fill:#FFB7AF;}
	.st108{fill:#B7CADE;}
	.st109{fill:#A0B9D2;}
	.st110{fill:#7D9EBD;}
	.st111{filter:url(#Adobe_OpacityMaskFilter);}
	.st112{mask:url(#SVGID_16_);}
	.st113{fill:#9E9E9F;}
	.st114{fill:#E6ECF5;stroke:#35405C;stroke-miterlimit:10;}
	.st115{fill:#E6ECF5;stroke:#BBC3C7;stroke-miterlimit:10;}
	.st116{fill:none;stroke:#FFFFFF;stroke-width:0.8;stroke-miterlimit:10;}
	.st117{fill:#FFFFFF;stroke:#CECECE;stroke-width:0.75;stroke-miterlimit:10;}
	.st118{fill:none;stroke:#BBC3C7;stroke-width:0.8;stroke-miterlimit:10;}
	.st119{fill:#70BDF6;stroke:#003756;stroke-miterlimit:10;}
	.st120{fill:none;stroke:#003756;stroke-miterlimit:10;}
	.st121{fill:#B9DDEF;}
	.st122{fill:#3E3A39;stroke:#3E3A39;stroke-width:0.3;stroke-miterlimit:10;}
	.st123{fill:#D1E0EF;}
	.st124{fill:#7E9CBA;}
	.st125{fill:#3E3A39;stroke:#3E3A39;stroke-width:0.282;stroke-miterlimit:10;}
	.st126{fill:none;stroke:#B7CADE;stroke-miterlimit:10;}
	.st127{fill:#CECECE;}
	.st128{fill:#E2E2E2;}
	.st129{fill:#BFBFBF;}
	.st130{fill:#2CA6E0;}
	.st131{fill:#EBF3FE;}
	.st132{fill:#005A92;}
	.st133{fill:none;stroke:#036EB7;stroke-width:1.5;stroke-miterlimit:10;}
	.st134{fill:#D8D8D8;}
	.st135{fill:none;stroke:#BBC3C7;stroke-miterlimit:10;stroke-dasharray:2;}
	.st136{fill:none;stroke:#BBC3C7;stroke-miterlimit:10;}
	.st137{fill:#D0D9E3;}
	.st138{fill:#EBF3FF;stroke:#CECECE;stroke-width:0.75;stroke-miterlimit:10;}
	.st139{opacity:0.2;fill:#036EB7;}
	.st140{fill:none;stroke:#35405C;stroke-width:0.75;stroke-miterlimit:10;}
	.st141{fill:none;stroke:#0079C2;stroke-miterlimit:10;}
	.st142{opacity:0.1;fill:#036EB7;}
	.st143{fill:none;stroke:#CECECE;stroke-width:0.75;stroke-miterlimit:10;}
	.st144{fill:none;stroke:#E50012;stroke-miterlimit:10;}
	.st145{fill:#00993E;}
	.st146{opacity:0.4;fill:#036EB7;}
	.st147{opacity:0.8;fill:url(#SVGID_17_);}
	.st148{fill:#E5ECF6;}
	.st149{fill:#E73828;}
	.st150{fill:#26FF00;}
	.st151{fill:url(#SVGID_18_);}
	.st152{fill:url(#SVGID_19_);}
	.st153{fill:url(#SVGID_20_);}
	.st154{fill:url(#SVGID_21_);}
	.st155{fill:url(#SVGID_22_);}
	.st156{fill:url(#SVGID_23_);}
	.st157{fill:url(#SVGID_24_);}
	.st158{fill:url(#SVGID_25_);}
	.st159{fill:url(#SVGID_26_);}
	.st160{fill:url(#SVGID_27_);}
	.st161{fill:url(#SVGID_28_);}
	.st162{fill:url(#SVGID_29_);}
	.st163{fill:url(#SVGID_30_);}
	.st164{fill:none;stroke:#BFBFBF;stroke-miterlimit:10;}
	.st165{fill:#E73828;stroke:#35405C;stroke-miterlimit:10;}
</style>
<g>
	<rect x="2" y="19" class="st4" width="36" height="1"/>
</g>
<g>
	<g>
		<g>
			<path class="st4" d="M14.7,15.3l0.9-0.1c0,0.3,0.2,0.6,0.4,0.8s0.5,0.3,0.9,0.3c0.4,0,0.7-0.1,0.9-0.2c0.2-0.2,0.3-0.4,0.3-0.6
				c0-0.2-0.1-0.4-0.3-0.5c-0.1-0.1-0.4-0.2-0.9-0.3c-0.6-0.2-1.1-0.3-1.3-0.4c-0.2-0.1-0.4-0.3-0.6-0.5c-0.1-0.2-0.2-0.4-0.2-0.7
				c0-0.2,0.1-0.4,0.2-0.6c0.1-0.2,0.3-0.4,0.4-0.5c0.1-0.1,0.3-0.2,0.6-0.3c0.2-0.1,0.5-0.1,0.8-0.1c0.4,0,0.8,0.1,1.1,0.2
				s0.5,0.3,0.7,0.5c0.1,0.2,0.2,0.5,0.3,0.8L18,13.1c0-0.3-0.2-0.5-0.3-0.6s-0.5-0.2-0.8-0.2c-0.4,0-0.7,0.1-0.9,0.2
				s-0.3,0.3-0.3,0.5c0,0.1,0,0.2,0.1,0.3c0.1,0.1,0.2,0.2,0.3,0.2c0.1,0,0.3,0.1,0.8,0.2c0.6,0.2,1.1,0.3,1.3,0.4
				c0.2,0.1,0.4,0.3,0.6,0.5s0.2,0.5,0.2,0.8c0,0.3-0.1,0.6-0.3,0.8c-0.2,0.3-0.4,0.5-0.7,0.6c-0.3,0.1-0.7,0.2-1.1,0.2
				c-0.7,0-1.2-0.1-1.5-0.4S14.8,15.9,14.7,15.3z"/>
			<path class="st4" d="M22.6,16.9v-6.3h-2.4V9.7h5.7v0.8h-2.4v6.3H22.6z"/>
		</g>
	</g>
	<g>
		<g>
			<path class="st4" d="M12.1,30.9h-0.9v-5.6c-0.2,0.2-0.5,0.4-0.8,0.6c-0.3,0.2-0.7,0.4-0.9,0.5v-0.8c0.5-0.2,0.9-0.5,1.3-0.8
				s0.6-0.6,0.8-1h0.6V30.9z"/>
			<path class="st4" d="M17,29.7v-2h-1.9v-0.8H17V25h0.8v1.9h1.9v0.8h-1.9v2H17z"/>
			<path class="st4" d="M21.3,29.3l0.9-0.1c0,0.3,0.2,0.6,0.4,0.8c0.2,0.2,0.5,0.3,0.9,0.3c0.4,0,0.7-0.1,0.9-0.2
				c0.2-0.2,0.3-0.4,0.3-0.6c0-0.2-0.1-0.4-0.3-0.5c-0.1-0.1-0.4-0.2-0.9-0.3c-0.6-0.2-1.1-0.3-1.3-0.4c-0.2-0.1-0.4-0.3-0.6-0.5
				c-0.1-0.2-0.2-0.4-0.2-0.7c0-0.2,0.1-0.4,0.2-0.6c0.1-0.2,0.2-0.4,0.4-0.5c0.1-0.1,0.3-0.2,0.6-0.3c0.2-0.1,0.5-0.1,0.8-0.1
				c0.4,0,0.8,0.1,1.1,0.2c0.3,0.1,0.5,0.3,0.7,0.5c0.1,0.2,0.2,0.5,0.3,0.8l-0.9,0.1c0-0.3-0.2-0.5-0.3-0.6
				c-0.2-0.1-0.5-0.2-0.8-0.2c-0.4,0-0.7,0.1-0.9,0.2s-0.3,0.3-0.3,0.5c0,0.1,0,0.2,0.1,0.3c0.1,0.1,0.2,0.2,0.3,0.2
				c0.1,0,0.3,0.1,0.8,0.2c0.6,0.2,1.1,0.3,1.3,0.4c0.2,0.1,0.4,0.3,0.6,0.5s0.2,0.5,0.2,0.8c0,0.3-0.1,0.6-0.3,0.8
				c-0.2,0.3-0.4,0.5-0.7,0.6c-0.3,0.1-0.7,0.2-1.1,0.2c-0.7,0-1.2-0.1-1.5-0.4C21.6,30.3,21.4,29.9,21.3,29.3z"/>
			<path class="st4" d="M29.1,30.9v-6.3h-2.4v-0.8h5.7v0.8h-2.4v6.3H29.1z"/>
		</g>
	</g>
</g>
<rect x="0" class="st1" width="40" height="40"/>
</svg>
