<?xml version="1.0" encoding="UTF-8"?>
<svg width="40px" height="40px" viewBox="0 0 40 40" version="1.1" xmlns="http://www.w3.org/2000/svg" xmlns:xlink="http://www.w3.org/1999/xlink">
    <title>FMU</title>
    <g id="FMU" stroke="none" stroke-width="1" fill="none" fill-rule="evenodd">
        <g transform="translate(0.000000, 13.000000)" fill="#35405C" fill-rule="nonzero" id="路径">
            <polygon points="0 0 0 13.7307692 2.10831721 13.7307692 2.10831721 7.57692308 8.97485493 7.57692308 8.97485493 5.78846154 2.10831721 5.78846154 2.10831721 1.78846154 9.38104449 1.78846154 9.38104449 0"></polygon>
            <polygon points="11.237911 0 11.237911 13.7307692 13.3462282 13.7307692 13.3462282 3.92307692 13.4235977 3.92307692 17.6595745 13.7307692 19.4777563 13.7307692 23.7137331 3.92307692 23.7911025 3.92307692 23.7911025 13.7307692 25.8994197 13.7307692 25.8994197 0 23.4042553 0 18.6073501 11 18.549323 11 13.7330754 0"></polygon>
            <path d="M28.6073501,0 L28.6073501,8.5 C28.6073501,10.2884615 29.1102515,11.6538462 30.1160542,12.6153846 C31.0831721,13.5384615 32.4758221,14 34.3133462,14 C36.131528,14 37.5241779,13.5192308 38.5106383,12.5961538 C39.4970986,11.6538462 40,10.2884615 40,8.5 L40,0 L37.8916828,0 L37.8916828,8.53846154 C37.8916828,9.76923077 37.6015474,10.6730769 37.040619,11.2692308 C36.4603482,11.8653846 35.5512573,12.1730769 34.3133462,12.1730769 C33.0560928,12.1730769 32.1470019,11.8653846 31.5667311,11.2692308 C30.9864603,10.6730769 30.7156673,9.76923077 30.7156673,8.53846154 L30.7156673,0 L28.6073501,0 Z"></path>
        </g>
    </g>
</svg>