<?xml version="1.0" encoding="utf-8"?>
<!-- Generator: Adobe Illustrator 24.0.1, SVG Export Plug-In . SVG Version: 6.00 Build 0)  -->
<svg version="1.1" xmlns="http://www.w3.org/2000/svg" xmlns:xlink="http://www.w3.org/1999/xlink" x="0px" y="0px"
	 viewBox="0 0 40 30" style="enable-background:new 0 0 40 30;" xml:space="preserve">
<style type="text/css">
	.st0{fill:#FFFFFF;}
	.st1{fill:none;}
	.st2{fill:#E2E2E2;}
	.st3{fill:#BFBFBF;}
	.st4{fill:#CACACA;}
	.st5{fill:#35405C;}
	.st6{fill:#003756;}
	.st7{fill:#E6ECF5;}
	.st8{fill:#FFFFFF;stroke:#231815;stroke-miterlimit:10;}
	.st9{fill:#E50012;}
	.st10{fill:#ABBED2;}
	.st11{fill:#F9EDED;}
	.st12{fill:#BBC3C7;}
	.st13{fill:#B9DDEF;}
	.st14{fill:#70BDF6;}
	.st15{fill:none;stroke:#35405C;stroke-width:1.5;stroke-miterlimit:10;}
	.st16{fill:#D1E0EF;}
	.st17{fill:#003D74;}
	.st18{fill:none;stroke:#B7CADE;stroke-miterlimit:10;}
	.st19{fill:#CECECE;}
	.st20{fill:#B7CADE;}
	.st21{fill:#3E3A39;stroke:#3E3A39;stroke-width:0.3;stroke-miterlimit:10;}
	.st22{fill:#2CA6E0;}
	.st23{fill:#036EB7;}
	.st24{fill:#EBF3FE;}
	.st25{fill:#005A92;}
	.st26{fill:#EEF5FB;}
	.st27{fill:none;stroke:#036EB7;stroke-width:1.5;stroke-miterlimit:10;}
	.st28{fill:#D8D8D8;}
	.st29{fill:none;stroke:#BBC3C7;stroke-miterlimit:10;stroke-dasharray:2;}
	.st30{fill:none;stroke:#BBC3C7;stroke-miterlimit:10;}
	.st31{fill:none;stroke:#E2E2E2;stroke-miterlimit:10;stroke-dasharray:2;}
	.st32{fill:#D0D9E3;}
	.st33{fill:#FFFFFF;stroke:#CECECE;stroke-width:0.75;stroke-miterlimit:10;}
	.st34{fill:#EBF3FF;stroke:#CECECE;stroke-width:0.75;stroke-miterlimit:10;}
	.st35{opacity:0.2;fill:#036EB7;}
	.st36{fill:none;stroke:#35405C;stroke-width:0.75;stroke-miterlimit:10;}
	.st37{fill:none;stroke:#003756;stroke-miterlimit:10;}
	.st38{fill:#0079C2;}
	.st39{fill:none;stroke:#0079C2;stroke-miterlimit:10;}
	.st40{opacity:0.1;fill:#036EB7;}
	.st41{fill:none;stroke:#CECECE;stroke-width:0.75;stroke-miterlimit:10;}
	.st42{fill:none;stroke:#E50012;stroke-miterlimit:10;}
	.st43{fill:#7E9CBA;}
	.st44{fill:#333333;}
	.st45{fill:none;stroke:#E2E2E2;stroke-width:1.5;stroke-miterlimit:10;}
	.st46{fill:#E5ECF6;}
	.st47{fill:#E73828;}
	.st48{fill:#26FF00;}
	.st49{fill:none;stroke:#35405C;stroke-miterlimit:10;}
	.st50{fill:none;stroke:#BFBFBF;stroke-miterlimit:10;}
	.st51{fill:#E73828;stroke:#35405C;stroke-miterlimit:10;}
	.st52{fill:#FFF000;}
	.st53{fill:#E3007F;}
	.st54{opacity:0.2;fill:#009FE8;}
	.st55{fill:url(#SVGID_1_);}
	.st56{fill:url(#SVGID_2_);}
	.st57{fill:url(#SVGID_3_);}
	.st58{fill:url(#SVGID_4_);}
	.st59{fill:url(#SVGID_5_);}
	.st60{fill:url(#SVGID_6_);}
	.st61{fill:url(#SVGID_7_);}
	.st62{fill:url(#SVGID_8_);}
	.st63{fill:url(#SVGID_9_);}
	.st64{fill:url(#SVGID_10_);}
	.st65{fill:url(#SVGID_11_);}
	.st66{fill:url(#SVGID_12_);}
	.st67{fill:url(#SVGID_13_);}
	.st68{opacity:0.5;}
</style>
<g id="图层_1">
	<g>
		<rect class="st1" width="40" height="30"/>
	</g>
	<g>
		<g>
			<path class="st5" d="M21,11.9h-0.9V6.3c-0.2,0.2-0.5,0.4-0.8,0.6s-0.7,0.4-0.9,0.5V6.5c0.5-0.2,0.9-0.5,1.3-0.8s0.6-0.6,0.8-1H21
				V11.9z"/>
		</g>
	</g>
	<g>
		<g>
			<path class="st5" d="M11.8,25.9H11v-5.6c-0.2,0.2-0.5,0.4-0.8,0.6c-0.3,0.2-0.7,0.4-0.9,0.5v-0.8c0.5-0.2,0.9-0.5,1.3-0.8
				s0.6-0.6,0.8-1h0.6V25.9z"/>
			<path class="st5" d="M16.8,24.7v-2h-1.9v-0.8h1.9V20h0.8v1.9h1.9v0.8h-1.9v2H16.8z"/>
			<path class="st5" d="M21,24.3l0.9-0.1c0,0.3,0.2,0.6,0.4,0.8c0.2,0.2,0.5,0.3,0.9,0.3c0.4,0,0.7-0.1,0.9-0.2
				c0.2-0.2,0.3-0.4,0.3-0.6c0-0.2-0.1-0.4-0.3-0.5c-0.1-0.1-0.4-0.2-0.9-0.3c-0.6-0.2-1.1-0.3-1.3-0.4c-0.2-0.1-0.4-0.3-0.6-0.5
				c-0.1-0.2-0.2-0.4-0.2-0.7c0-0.2,0.1-0.4,0.2-0.6c0.1-0.2,0.2-0.4,0.4-0.5c0.1-0.1,0.3-0.2,0.6-0.3c0.2-0.1,0.5-0.1,0.8-0.1
				c0.4,0,0.8,0.1,1.1,0.2c0.3,0.1,0.5,0.3,0.7,0.5c0.1,0.2,0.2,0.5,0.3,0.8l-0.9,0.1c0-0.3-0.2-0.5-0.3-0.6
				c-0.2-0.1-0.5-0.2-0.8-0.2c-0.4,0-0.7,0.1-0.9,0.2S22,21.8,22,22c0,0.1,0,0.2,0.1,0.3c0.1,0.1,0.2,0.2,0.3,0.2
				c0.1,0,0.3,0.1,0.8,0.2c0.6,0.2,1.1,0.3,1.3,0.4c0.2,0.1,0.4,0.3,0.6,0.5s0.2,0.5,0.2,0.8c0,0.3-0.1,0.6-0.3,0.8
				c-0.2,0.3-0.4,0.5-0.7,0.6C24,25.9,23.6,26,23.2,26c-0.7,0-1.2-0.1-1.5-0.4C21.3,25.3,21.1,24.9,21,24.3z"/>
			<path class="st5" d="M28.9,25.9v-6.3h-2.4v-0.8h5.7v0.8h-2.4v6.3H28.9z"/>
		</g>
	</g>
	<g>
		<rect x="1" y="14" class="st5" width="38" height="1"/>
	</g>
</g>
<g id="图层_2" class="st68">
</g>
</svg>
