<?xml version="1.0" encoding="utf-8"?>
<!-- Generator: Adobe Illustrator 24.0.1, SVG Export Plug-In . SVG Version: 6.00 Build 0)  -->
<svg version="1.1" id="图层_1" xmlns="http://www.w3.org/2000/svg" xmlns:xlink="http://www.w3.org/1999/xlink" x="0px" y="0px"
	 viewBox="0 0 40 30" style="enable-background:new 0 0 40 30;" xml:space="preserve">
<style type="text/css">
	.st0{fill:none;}
	.st1{fill:#35405C;}
	.st2{opacity:0.5;}
</style>
<g id="图层_1_1_">
	<g>
		<g>
			<g>
				<rect class="st0" width="40" height="30"/>
			</g>
		</g>
		<g>
			<g>
				<path class="st1" d="M10.3,17.9v-7.2h0.9v7.2H10.3z"/>
				<path class="st1" d="M13.1,11.7v-1H14v1H13.1z M13.1,17.9v-5.2H14v5.2H13.1z"/>
				<path class="st1" d="M15.9,17.9v-5.2h0.8v0.7c0.2-0.3,0.4-0.5,0.6-0.6c0.3-0.2,0.6-0.2,0.9-0.2c0.4,0,0.7,0.1,0.9,0.2
					c0.2,0.2,0.4,0.4,0.5,0.7c0.4-0.6,0.9-0.9,1.6-0.9c0.5,0,0.9,0.1,1.2,0.4c0.3,0.3,0.4,0.7,0.4,1.3v3.6h-0.9v-3.3
					c0-0.4,0-0.6-0.1-0.8s-0.2-0.3-0.3-0.4s-0.3-0.1-0.5-0.1c-0.4,0-0.7,0.1-0.9,0.4c-0.2,0.2-0.4,0.6-0.4,1.2v3h-0.9v-3.4
					c0-0.4-0.1-0.7-0.2-0.9s-0.4-0.3-0.7-0.3c-0.2,0-0.5,0.1-0.7,0.2c-0.2,0.1-0.4,0.3-0.5,0.6s-0.1,0.6-0.1,1.1v2.7H15.9z"/>
				<path class="st1" d="M24.8,11.7v-1h0.9v1H24.8z M24.8,17.9v-5.2h0.9v5.2H24.8z"/>
				<path class="st1" d="M29.6,17.1l0.1,0.8C29.5,18,29.2,18,29,18c-0.3,0-0.6-0.1-0.7-0.2s-0.3-0.2-0.4-0.4c-0.1-0.2-0.1-0.5-0.1-1
					v-3h-0.6v-0.7h0.6v-1.3l0.9-0.5v1.8h0.9v0.7h-0.9v3c0,0.3,0,0.4,0,0.5s0.1,0.1,0.2,0.2c0.1,0,0.2,0.1,0.3,0.1
					C29.3,17.1,29.4,17.1,29.6,17.1z"/>
			</g>
		</g>
	</g>
</g>
</svg>
