<?xml version="1.0" encoding="utf-8"?>
<!-- Generator: Adobe Illustrator 24.0.1, SVG Export Plug-In . SVG Version: 6.00 Build 0)  -->
<svg version="1.1" xmlns="http://www.w3.org/2000/svg" xmlns:xlink="http://www.w3.org/1999/xlink" x="0px" y="0px"
	 viewBox="0 0 41 30" style="enable-background:new 0 0 41 30;" xml:space="preserve">
<style type="text/css">
	.st0{fill:#FFFFFF;}
	.st1{fill:none;}
	.st2{fill:#E2E2E2;}
	.st3{fill:#BFBFBF;}
	.st4{fill:#CACACA;}
	.st5{fill:#35405C;}
	.st6{fill:#003756;}
	.st7{fill:#E6ECF5;}
	.st8{fill:#FFFFFF;stroke:#231815;stroke-miterlimit:10;}
	.st9{fill:#E50012;}
	.st10{fill:#ABBED2;}
	.st11{fill:#F9EDED;}
	.st12{fill:#BBC3C7;}
	.st13{fill:#B9DDEF;}
	.st14{fill:#70BDF6;}
	.st15{fill:none;stroke:#35405C;stroke-width:1.5;stroke-miterlimit:10;}
	.st16{fill:#D1E0EF;}
	.st17{fill:#003D74;}
	.st18{fill:none;stroke:#B7CADE;stroke-miterlimit:10;}
	.st19{fill:#CECECE;}
	.st20{fill:#B7CADE;}
	.st21{fill:#3E3A39;stroke:#3E3A39;stroke-width:0.3;stroke-miterlimit:10;}
	.st22{fill:#2CA6E0;}
	.st23{fill:#036EB7;}
	.st24{fill:#EBF3FE;}
	.st25{fill:#005A92;}
	.st26{fill:#EEF5FB;}
	.st27{fill:none;stroke:#036EB7;stroke-width:1.5;stroke-miterlimit:10;}
	.st28{fill:#D8D8D8;}
	.st29{fill:none;stroke:#BBC3C7;stroke-miterlimit:10;stroke-dasharray:2;}
	.st30{fill:none;stroke:#BBC3C7;stroke-miterlimit:10;}
	.st31{fill:none;stroke:#E2E2E2;stroke-miterlimit:10;stroke-dasharray:2;}
	.st32{fill:#D0D9E3;}
	.st33{fill:#FFFFFF;stroke:#CECECE;stroke-width:0.75;stroke-miterlimit:10;}
	.st34{fill:#EBF3FF;stroke:#CECECE;stroke-width:0.75;stroke-miterlimit:10;}
	.st35{opacity:0.2;fill:#036EB7;}
	.st36{fill:none;stroke:#35405C;stroke-width:0.75;stroke-miterlimit:10;}
	.st37{fill:none;stroke:#003756;stroke-miterlimit:10;}
	.st38{fill:#0079C2;}
	.st39{fill:none;stroke:#0079C2;stroke-miterlimit:10;}
	.st40{opacity:0.1;fill:#036EB7;}
	.st41{fill:none;stroke:#CECECE;stroke-width:0.75;stroke-miterlimit:10;}
	.st42{fill:none;stroke:#E50012;stroke-miterlimit:10;}
	.st43{fill:#7E9CBA;}
	.st44{fill:#333333;}
	.st45{fill:none;stroke:#E2E2E2;stroke-width:1.5;stroke-miterlimit:10;}
	.st46{fill:#E5ECF6;}
	.st47{fill:#E73828;}
	.st48{fill:#26FF00;}
	.st49{fill:none;stroke:#35405C;stroke-miterlimit:10;}
	.st50{fill:none;stroke:#BFBFBF;stroke-miterlimit:10;}
	.st51{fill:#E73828;stroke:#35405C;stroke-miterlimit:10;}
	.st52{fill:#FFF000;}
	.st53{fill:#E3007F;}
	.st54{opacity:0.2;fill:#009FE8;}
	.st55{fill:url(#SVGID_1_);}
	.st56{fill:url(#SVGID_2_);}
	.st57{fill:url(#SVGID_3_);}
	.st58{fill:url(#SVGID_4_);}
	.st59{fill:url(#SVGID_5_);}
	.st60{fill:url(#SVGID_6_);}
	.st61{fill:url(#SVGID_7_);}
	.st62{fill:url(#SVGID_8_);}
	.st63{fill:url(#SVGID_9_);}
	.st64{fill:url(#SVGID_10_);}
	.st65{fill:url(#SVGID_11_);}
	.st66{fill:url(#SVGID_12_);}
	.st67{fill:url(#SVGID_13_);}
	.st68{opacity:0.5;}
</style>
<g id="图层_1">
	<g>
		<g>
			<g>
				<rect class="st1" width="41" height="30"/>
			</g>
		</g>
		<g>
			<g>
				<path class="st5" d="M9.1,17.9v-7.2H10v7.2H9.1z"/>
				<path class="st5" d="M11.6,15.3c0-1,0.3-1.7,0.8-2.1c0.4-0.4,1-0.6,1.6-0.6c0.7,0,1.3,0.2,1.7,0.7c0.5,0.5,0.7,1.1,0.7,1.9
					c0,0.7-0.1,1.2-0.3,1.6c-0.2,0.4-0.5,0.7-0.9,0.9C14.9,17.9,14.5,18,14,18c-0.7,0-1.3-0.2-1.8-0.7
					C11.8,16.8,11.6,16.2,11.6,15.3z M12.5,15.3c0,0.7,0.1,1.2,0.4,1.5c0.3,0.3,0.7,0.5,1.1,0.5c0.4,0,0.8-0.2,1.1-0.5
					s0.4-0.8,0.4-1.5c0-0.6-0.1-1.1-0.4-1.5c-0.3-0.3-0.7-0.5-1.1-0.5c-0.4,0-0.8,0.2-1.1,0.5S12.5,14.6,12.5,15.3z"/>
				<path class="st5" d="M17.9,18.3l0.9,0.1c0,0.3,0.1,0.5,0.3,0.6c0.2,0.2,0.5,0.2,0.9,0.2c0.4,0,0.7-0.1,0.9-0.2s0.4-0.4,0.4-0.7
					c0-0.2,0.1-0.6,0.1-1.1c-0.4,0.5-0.9,0.7-1.4,0.7c-0.7,0-1.3-0.3-1.7-0.8s-0.6-1.1-0.6-1.9c0-0.5,0.1-1,0.3-1.4
					c0.2-0.4,0.4-0.7,0.8-1c0.3-0.2,0.7-0.3,1.2-0.3c0.6,0,1.1,0.2,1.5,0.7v-0.6h0.8v4.5c0,0.8-0.1,1.4-0.2,1.7
					c-0.2,0.3-0.4,0.6-0.8,0.8C20.9,19.9,20.5,20,20,20c-0.6,0-1.1-0.1-1.5-0.4C18.1,19.3,17.9,18.9,17.9,18.3z M18.6,15.2
					c0,0.7,0.1,1.2,0.4,1.5s0.6,0.5,1,0.5c0.4,0,0.7-0.2,1-0.5c0.3-0.3,0.4-0.8,0.4-1.5c0-0.6-0.1-1.1-0.4-1.4
					c-0.3-0.3-0.6-0.5-1-0.5c-0.4,0-0.7,0.2-1,0.5C18.8,14.1,18.6,14.6,18.6,15.2z"/>
				<path class="st5" d="M32.2,12.7l-1,3.5c-0.2,0.5-0.2,0.8-0.2,1c0,0.1,0,0.1,0,0.2s0.1,0,0.1,0c0.1,0,0.1,0,0.2-0.1
					s0.3-0.3,0.6-0.7l0.2,0.1c-0.3,0.5-0.6,0.8-0.9,1.1c-0.2,0.1-0.4,0.2-0.6,0.2c-0.2,0-0.3,0-0.4-0.1S30,17.7,30,17.6
					c0-0.1,0-0.3,0.1-0.5c0.1-0.3,0.2-0.9,0.5-1.9C30,16.2,29.4,17,29,17.4S28.1,18,27.7,18c-0.2,0-0.3-0.1-0.5-0.2
					s-0.2-0.3-0.2-0.5c0-0.3,0.1-0.7,0.3-1.3l0.5-1.8c0.1-0.4,0.2-0.7,0.2-0.8c0,0,0-0.1,0-0.1s-0.1,0-0.1,0c-0.1,0-0.2,0-0.2,0.1
					s-0.3,0.3-0.6,0.7l-0.2-0.1c0.3-0.5,0.6-0.8,0.9-1c0.3-0.2,0.5-0.3,0.7-0.3c0.1,0,0.3,0,0.4,0.1s0.1,0.2,0.1,0.4
					c0,0.2-0.1,0.6-0.2,1.1l-0.6,1.9c-0.2,0.5-0.2,0.8-0.2,1c0,0.1,0,0.1,0.1,0.2s0.1,0.1,0.2,0.1c0.1,0,0.3-0.1,0.5-0.2
					s0.5-0.4,0.8-0.9s0.6-0.9,0.9-1.2s0.5-1,0.7-1.9l0.1-0.4H32.2z"/>
			</g>
		</g>
	</g>
</g>
<g id="图层_2" class="st68">
</g>
</svg>
