<?xml version="1.0" encoding="utf-8"?>
<!-- Generator: Adobe Illustrator 24.0.1, SVG Export Plug-In . SVG Version: 6.00 Build 0)  -->
<svg version="1.1" id="图层_1" xmlns="http://www.w3.org/2000/svg" xmlns:xlink="http://www.w3.org/1999/xlink" x="0px" y="0px"
	 viewBox="0 0 40 30" style="enable-background:new 0 0 40 30;" xml:space="preserve">
<style type="text/css">
	.st0{fill:none;}
	.st1{fill:#35405C;}
	.st2{opacity:0.5;}
</style>
<g id="图层_1_1_">
	<g>
		<g>
			<rect class="st0" width="40" height="30"/>
		</g>
	</g>
	<g>
		<path class="st1" d="M5.3,19.2v-8.6h1.2l4.5,6.7v-6.7h1.1v8.6h-1.2l-4.5-6.8v6.8H5.3z"/>
		<path class="st1" d="M19.6,10.6h1.1v5c0,0.9-0.1,1.5-0.3,2.1c-0.2,0.5-0.5,0.9-1.1,1.2s-1.2,0.5-2,0.5c-0.8,0-1.5-0.1-2-0.4
			s-0.9-0.7-1.1-1.2S14,16.5,14,15.6v-5h1.1v5c0,0.7,0.1,1.3,0.2,1.6s0.4,0.6,0.7,0.8s0.8,0.3,1.2,0.3c0.8,0,1.4-0.2,1.8-0.6
			s0.5-1.1,0.5-2.2V10.6z"/>
		<path class="st1" d="M22.6,19.2v-8.6h1.1v7.6H28v1H22.6z"/>
		<path class="st1" d="M29.3,19.2v-8.6h1.1v7.6h4.2v1H29.3z"/>
	</g>
</g>
<g id="图层_2_1_" class="st2">
</g>
</svg>
