<?xml version="1.0" encoding="UTF-8"?>
<svg width="40px" height="30px" viewBox="0 0 40 30" version="1.1" xmlns="http://www.w3.org/2000/svg" xmlns:xlink="http://www.w3.org/1999/xlink">
    <title>Out</title>
    <g id="控件" stroke="none" stroke-width="1" fill="none" fill-rule="evenodd">
        <g id="Out" transform="translate(0.000000, 0.000000)">
            <rect id="矩形" x="0" y="0" width="40" height="30"></rect>
            <g id="编组" transform="translate(0.500000, 2.800000)" fill-rule="nonzero">
                <g>
                    <path d="M12.7,23.9 C5.6,23.9 0.5,19.2 0.5,12.7 C0.5,6 6,0.5 12.7,0.5 L26.2,0.5 C33,0.5 38.5,6 38.5,12.7 C38.5,19.2 33.4,23.9 26.3,23.9 L12.7,23.9 Z" id="路径" fill="#FFFFFF"></path>
                    <path d="M26.3,1 C32.8,1 38,6.3 38,12.7 C38,18.9 33.1,23.4 26.3,23.4 L12.7,23.4 C5.9,23.4 1,18.9 1,12.7 C1,6.2 6.3,1 12.7,1 L26.3,1 M26.3,-8.8817842e-16 L12.7,-8.8817842e-16 C5.7,-8.8817842e-16 0,5.7 0,12.7 C0,19.7 5.7,24.4 12.7,24.4 L26.2,24.4 C33.2,24.4 38.9,19.7 38.9,12.7 C38.9,5.7 33.3,-8.8817842e-16 26.3,-8.8817842e-16 L26.3,-8.8817842e-16 Z" id="形状" fill="#003756"></path>
                </g>
                <path d="M26.3,22.2 L12.7,22.2 C7,22.2 2.4,17.8 2.4,12.3 L2.4,12.3 C2.4,6.8 7,2.4 12.7,2.4 L26.2,2.4 C31.9,2.4 36.5,6.8 36.5,12.3 L36.5,12.3 C36.6,17.8 32,22.2 26.3,22.2 Z" id="路径" fill="#FFFFFF"></path>
                <path d="M20.4,17.1 L19.3,17.1 L19.3,10.3 C19,10.5 18.7,10.8 18.3,11 C17.9,11.2 17.5,11.4 17.2,11.6 L17.2,10.6 C17.8,10.3 18.3,10 18.7,9.6 C19.1,9.2 19.5,8.8 19.6,8.4 L20.3,8.4 L20.3,17.1 L20.4,17.1 Z" id="路径" fill="#35405C"></path>
            </g>
        </g>
    </g>
</svg>