<?xml version="1.0" encoding="utf-8"?>
<!-- Generator: Adobe Illustrator 24.0.1, SVG Export Plug-In . SVG Version: 6.00 Build 0)  -->
<svg version="1.1" id="图层_1" xmlns="http://www.w3.org/2000/svg" xmlns:xlink="http://www.w3.org/1999/xlink" x="0px" y="0px"
	 viewBox="0 0 80 30" style="enable-background:new 0 0 80 30;" xml:space="preserve">
<style type="text/css">
	.st0{fill:#35405C;}
	.st1{font-family:'ArialMT';}
	.st2{font-size:10px;}
	.st3{enable-background:new    ;}
</style>
<text transform="matrix(1 0 0 1 2.1488 17.553)" class="st0 st1 st2">a</text>
<text transform="matrix(1 0 0 1 7.4756 17.8655)" class="st0 st1 st2">×</text>
<text transform="matrix(1 0 0 1 14.4565 17.553)" class="st0 st1 st2">Sin</text>
<text transform="matrix(1 0 0 1 30.0461 17.5531)" class="st0 st1 st2">(</text>
<g>
	<g class="st3">
		<path class="st0" d="M34.9,12.4h0.8c-0.5,1.1-0.7,2-0.7,2.7c0,0.6,0.1,1,0.3,1.4s0.5,0.5,0.8,0.5c0.2,0,0.4-0.1,0.6-0.2
			s0.3-0.4,0.4-0.6s0.1-0.5,0.1-1v-1.5H38v1.5c0,0.4,0,0.7,0.1,1s0.2,0.4,0.4,0.6c0.2,0.2,0.4,0.2,0.6,0.2c0.3,0,0.6-0.2,0.8-0.5
			c0.2-0.3,0.3-0.8,0.3-1.4c0-0.7-0.2-1.6-0.7-2.7h0.8c0.5,0.9,0.8,1.8,0.8,2.7c0,0.9-0.2,1.5-0.5,2s-0.8,0.7-1.4,0.7
			c-0.7,0-1.3-0.4-1.6-1.2c-0.3,0.8-0.8,1.2-1.6,1.2c-0.6,0-1-0.2-1.4-0.7s-0.5-1.1-0.5-1.9C34.1,14.2,34.4,13.3,34.9,12.4z"/>
	</g>
</g>
<text transform="matrix(1 0 0 1 48.6045 17.553)" class="st0 st1 st2">+</text>
<g>
	<g class="st3">
		<path class="st0" d="M57.7,12.3L57.6,13c-0.7,0.2-1,0.8-1,1.8c0,0.5,0.1,1,0.4,1.4c0.3,0.4,0.7,0.6,1.2,0.8v-3.2
			c0-0.3,0-0.6,0.1-0.8c0-0.2,0.2-0.3,0.3-0.5c0.2-0.1,0.4-0.2,0.7-0.2c0.5,0,0.8,0.1,1.1,0.3c0.3,0.2,0.5,0.5,0.7,0.9
			c0.2,0.4,0.3,0.8,0.3,1.3c0,0.4-0.1,0.8-0.2,1.2c-0.2,0.4-0.4,0.8-0.8,1.1c-0.4,0.3-0.8,0.6-1.4,0.7v1.9h-0.9v-1.9
			c-0.6,0-1.2-0.3-1.7-0.8s-0.8-1.2-0.8-2c0-0.8,0.2-1.4,0.6-1.9C56.7,12.5,57.2,12.3,57.7,12.3z M59,16.9c0.4-0.1,0.8-0.3,1.1-0.7
			c0.3-0.4,0.4-0.9,0.4-1.5c0-0.6-0.1-1-0.3-1.3S59.7,13,59.5,13c-0.2,0-0.3,0.1-0.4,0.2C59,13.3,59,13.5,59,13.9V16.9z"/>
	</g>
</g>
<text transform="matrix(1 0 0 1 62.3045 17.553)" class="st0 st1 st2">)</text>
<text transform="matrix(1 0 0 1 65.1651 17.553)" class="st0 st1 st2">+</text>
<text transform="matrix(1 0 0 1 72.2894 17.553)" class="st0 st1 st2">b</text>
<g>
	<g>
		<path class="st0" d="M44.6,11.5c0.2,0.2,0.4,0.5,0.5,0.7c0.1,0.2,0.2,0.6,0.4,1.3l0.6-0.9c0.2-0.2,0.3-0.4,0.6-0.6
			c0.2-0.2,0.4-0.3,0.6-0.4c0.1,0,0.2-0.1,0.4-0.1s0.3,0.1,0.5,0.2c0.1,0.1,0.2,0.2,0.2,0.4c0,0.2,0,0.3-0.1,0.4
			c-0.1,0.1-0.3,0.2-0.4,0.2c-0.1,0-0.2,0-0.3-0.1c-0.2-0.1-0.4-0.1-0.4-0.1c-0.1,0-0.2,0.1-0.4,0.2c-0.3,0.2-0.6,0.7-1,1.4l0.6,2.4
			c0.1,0.4,0.2,0.6,0.2,0.6c0.1,0.1,0.1,0.1,0.2,0.1c0.1,0,0.2-0.1,0.3-0.2c0.2-0.2,0.5-0.5,0.6-0.8l0.2,0.1c-0.3,0.5-0.6,1-1.1,1.3
			c-0.2,0.2-0.5,0.3-0.6,0.3c-0.3,0-0.5-0.1-0.6-0.4c-0.1-0.2-0.3-0.9-0.6-2.3c-0.7,1.2-1.3,2-1.7,2.4c-0.3,0.2-0.5,0.3-0.8,0.3
			c-0.2,0-0.3-0.1-0.5-0.2c-0.2-0.2-0.2-0.3-0.2-0.5s0-0.3,0.1-0.4c0.1-0.1,0.2-0.2,0.4-0.2c0.1,0,0.3,0.1,0.5,0.2
			c0.1,0.1,0.2,0.2,0.3,0.2c0.1,0,0.1,0,0.2-0.1c0.2-0.2,0.5-0.5,0.9-1.1c0.4-0.6,0.6-1,0.7-1.2c-0.3-1.1-0.4-1.7-0.5-1.8
			c-0.1-0.3-0.2-0.5-0.4-0.6c-0.2-0.1-0.4-0.2-0.7-0.2c-0.1,0-0.2,0-0.4,0v-0.2L44.6,11.5z"/>
	</g>
</g>
</svg>
