<?xml version="1.0" encoding="UTF-8"?>
<svg width="40px" height="40px" viewBox="0 0 40 40" version="1.1" xmlns="http://www.w3.org/2000/svg" xmlns:xlink="http://www.w3.org/1999/xlink">
    <title>1</title>
    <g id="1" stroke="none" stroke-width="1" fill="none" fill-rule="evenodd">
        <path d="M4.4,12 L6.35,12 L6.35,10 L9.4375,10 L9.4375,12 L11.3875,12 L11.3875,10 L14.475,10 L14.475,12 L16.425,12 L16.425,10 L19.5125,10 L19.5125,12 L21.4625,12 L21.4625,10 L24.55,10 L24.55,12 L26.5,12 L26.5,10 L29.5875,10 L29.5875,12 L31.5375,12 L31.5375,10 L34.625,10 L34.625,12 L36.575,12 L36.575,10 L39.5,10 L39.5,30 L36.575,30 L36.575,28 L34.625,28 L34.625,30 L31.5375,30 L31.5375,28 L29.5875,28 L29.5875,30 L26.5,30 L26.5,28 L24.55,28 L24.55,30 L21.4625,30 L21.4625,28 L19.5125,28 L19.5125,30 L16.425,30 L16.425,28 L14.475,28 L14.475,30 L11.3875,30 L11.3875,28 L9.4375,28 L9.4375,30 L6.35,30 L6.35,28 L4.4,28 L4.4,30 L0.5,30 L0.5,10 L4.4,10 L4.4,12 Z" id="形状结合" stroke="#35405C"></path>
        <path d="M4.4,12 L6.35,12 L6.35,10 L9.4375,10 L9.4375,12 L11.3875,12 L11.3875,10 L14.475,10 L14.475,12 L16.425,12 L16.425,10 L19.5125,10 L19.5125,12 L21.4625,12 L21.4625,10 L24.55,10 L24.55,12 L26.5,12 L26.5,10 L29.5875,10 L29.5875,12 L31.5375,12 L31.5375,10 L34.625,10 L34.625,12 L36.575,12 L36.575,10 L39.5,10 L39.5,30 L36.575,30 L36.575,28 L34.625,28 L34.625,30 L31.5375,30 L31.5375,28 L29.5875,28 L29.5875,30 L26.5,30 L26.5,28 L24.55,28 L24.55,30 L21.4625,30 L21.4625,28 L19.5125,28 L19.5125,30 L16.425,30 L16.425,28 L14.475,28 L14.475,30 L11.3875,30 L11.3875,28 L9.4375,28 L9.4375,30 L6.35,30 L6.35,28 L4.4,28 L4.4,30 L0.5,30 L0.5,10 L4.4,10 L4.4,12 Z" id="形状结合" fill="#E6ECF5"></path>
        <g id="编组-2" transform="translate(4.000000, 10.000000)" fill="#35405C" stroke="#35405C" stroke-width="0.666666667">
            <g id="编组" transform="translate(0.000000, 5.479109)">
                <rect id="矩形" x="0.333333333" y="0.333333333" width="5.33333333" height="9.35422452"></rect>
                <rect id="矩形备份-8" x="9.33333333" y="0.333333333" width="5.33333333" height="9.35422452"></rect>
                <rect id="矩形备份-9" x="18.3333333" y="0.333333333" width="5.33333333" height="9.35422452"></rect>
                <rect id="矩形备份-10" x="27.3333333" y="0.333333333" width="5.33333333" height="9.35422452"></rect>
            </g>
        </g>
    </g>
</svg>