<?xml version="1.0" encoding="utf-8"?>
<!-- Generator: Adobe Illustrator 25.3.1, SVG Export Plug-In . SVG Version: 6.00 Build 0)  -->
<svg version="1.1" id="图层_1" xmlns="http://www.w3.org/2000/svg" xmlns:xlink="http://www.w3.org/1999/xlink" x="0px" y="0px"
	 viewBox="0 0 60 40" style="enable-background:new 0 0 60 40;" xml:space="preserve">
<style type="text/css">
	.st0{fill:#35405C;}
	.st1{fill:#FFFFFF;}
	.st2{fill:#E6ECF5;}
</style>
<g id="Sum3-Gain-3">
	
		<g id="Sum3Gain" transform="translate(30.000000, 20.000000) rotate(-180.000000) translate(-30.000000, -20.000000) translate(0.000000, 4.333333)">
		<g id="编组" transform="translate(0.000000, 2.600000)">
			<g>
				<rect id="矩形" y="2.7" class="st0" width="22.7" height="1"/>
				<polygon id="路径" class="st0" points="6.7,6.1 6.7,0 14.7,3.1 				"/>
				<polygon id="路径_1_" class="st0" points="20.5,3.1 18.3,1.4 17.3,1.4 19.5,3.1 17.3,4.7 18.3,4.7 				"/>
				<polygon id="路径_2_" class="st1" points="9.3,4.1 10,3.4 9.3,3.4 9.3,2.1 8.7,2.1 8.7,4.1 				"/>
			</g>
			<g transform="translate(0.000000, 10.000000)">
				<rect id="矩形_1_" y="2.7" class="st0" width="22.7" height="1"/>
				<polygon id="路径_3_" class="st0" points="6.7,6.1 6.7,0 14.7,3.1 				"/>
				<polygon id="路径_4_" class="st0" points="20.5,3.1 18.3,1.4 17.3,1.4 19.5,3.1 17.3,4.7 18.3,4.7 				"/>
				<polygon id="路径_5_" class="st1" points="9.3,4.1 10,3.4 9.3,3.4 9.3,2.1 8.7,2.1 8.7,4.1 				"/>
			</g>
			<g transform="translate(0.000000, 20.000000)">
				<rect id="矩形_2_" y="2.7" class="st0" width="22.7" height="1"/>
				<polygon id="路径_6_" class="st0" points="6.7,6.1 6.7,0 14.7,3.1 				"/>
				<polygon id="路径_7_" class="st0" points="20.5,3.1 18.3,1.4 17.3,1.4 19.5,3.1 17.3,4.7 18.3,4.7 				"/>
				<polygon id="路径_8_" class="st1" points="9.3,4.1 10,3.4 9.3,3.4 9.3,2.1 8.7,2.1 8.7,4.1 				"/>
			</g>
		</g>
		<g id="编组_1_" transform="translate(21.333333, 0.000000)">
			<rect id="矩形_3_" x="0" y="0" class="st2" width="32" height="31.3"/>
			<path id="形状" class="st0" d="M0,0v31.3h32V0H0z M31.3,30.7H0.7v-30h30.7V30.7z"/>
			<g id="编组-2" transform="translate(4.000000, 4.000000)">
				<polygon id="路径_9_" class="st0" points="2,1.3 2,0 1.3,0 1.3,1.3 0,1.3 0,2 1.3,2 1.3,3.3 2,3.3 2,2 3.3,2 3.3,1.3 				"/>
				<polygon id="路径_10_" class="st0" points="2,9.9 1.3,9.9 1.3,11.3 0,11.3 0,11.9 1.3,11.9 1.3,13.3 2,13.3 2,11.9 3.3,11.9 
					3.3,11.3 2,11.3 				"/>
				<polygon id="路径_11_" class="st0" points="2,20 1.3,20 1.3,21.3 0,21.3 0,22 1.3,22 1.3,23.3 2,23.3 2,22 3.3,22 3.3,21.3 
					2,21.3 				"/>
			</g>
			<polygon id="矩形_4_" class="st0" points="32,15.3 38.7,15.3 38.7,16 32,16 			"/>
		</g>
	</g>
</g>
</svg>
