<?xml version="1.0" encoding="utf-8"?>
<!-- Generator: Adobe Illustrator 25.3.1, SVG Export Plug-In . SVG Version: 6.00 Build 0)  -->
<svg version="1.1" id="图层_1" xmlns="http://www.w3.org/2000/svg" xmlns:xlink="http://www.w3.org/1999/xlink" x="0px" y="0px"
	 viewBox="0 0 40 60" style="enable-background:new 0 0 40 60;" xml:space="preserve">
<style type="text/css">
	.st0{fill:#35405C;}
	.st1{fill:#FFFFFF;}
	.st2{fill:#E6ECF5;}
</style>
<g id="Sum-Gain-2">
	
		<g id="SumGain" transform="translate(20.000000, 30.000000) rotate(-270.000000) translate(-20.000000, -30.000000) translate(-10.000000, 14.333333)">
		<g id="编组" transform="translate(0.000000, 2.600000)">
			<g>
				
					<rect id="矩形" x="10.8" y="-8.1" transform="matrix(2.535182e-06 1 -1 2.535182e-06 14.5666 -8.1)" class="st0" width="1" height="22.7"/>
				<polygon id="路径" class="st0" points="6.7,6.1 6.7,0 14.7,3.1 				"/>
				<polygon id="路径_1_" class="st0" points="20.5,3.1 18.3,1.4 17.3,1.4 19.5,3.1 17.3,4.7 18.3,4.7 				"/>
				<polygon id="路径_2_" class="st1" points="8.3,3.1 9,3.7 9,3.1 10.3,3.1 10.3,2.4 8.3,2.4 				"/>
			</g>
			<g transform="translate(0.000000, 20.000000)">
				
					<rect id="矩形_1_" x="10.8" y="-8.1" transform="matrix(2.535182e-06 1 -1 2.535182e-06 14.5666 -8.1)" class="st0" width="1" height="22.7"/>
				<polygon id="路径_3_" class="st0" points="6.7,6.1 6.7,0 14.7,3.1 				"/>
				<polygon id="路径_4_" class="st0" points="20.5,3.1 18.3,1.4 17.3,1.4 19.5,3.1 17.3,4.7 18.3,4.7 				"/>
				<polygon id="路径_5_" class="st1" points="8.3,3.1 9,3.7 9,3.1 10.3,3.1 10.3,2.4 8.3,2.4 				"/>
			</g>
		</g>
		<g id="编组_1_" transform="translate(21.333333, 0.000000)">
			
				<rect id="矩形_2_" x="0.3" y="-0.3" transform="matrix(2.535182e-06 1 -1 2.535182e-06 31.6666 -0.3334)" class="st2" width="31.3" height="32"/>
			<path id="形状" class="st0" d="M0,0v31.3h32V0H0z M31.3,30.7H0.7v-30h30.7V30.7z"/>
			<g id="路径_6_" transform="translate(4.000000, 4.000000)">
				<polygon class="st0" points="2,1.3 2,0 1.3,0 1.3,1.3 0,1.3 0,2 1.3,2 1.3,3.3 2,3.3 2,2 3.3,2 3.3,1.3 				"/>
				<polygon class="st0" points="2,20 1.3,20 1.3,21.3 0,21.3 0,22 1.3,22 1.3,23.3 2,23.3 2,22 3.3,22 3.3,21.3 2,21.3 				"/>
			</g>
			<polygon id="矩形_3_" class="st0" points="32,15.3 38.7,15.3 38.7,16 32,16 			"/>
		</g>
	</g>
</g>
</svg>
