<?xml version="1.0" encoding="utf-8"?>
<!-- Generator: Adobe Illustrator 24.0.1, SVG Export Plug-In . SVG Version: 6.00 Build 0)  -->
<svg version="1.1" id="图层_1" xmlns="http://www.w3.org/2000/svg" xmlns:xlink="http://www.w3.org/1999/xlink" x="0px" y="0px"
	 viewBox="0 0 45 30" style="enable-background:new 0 0 45 30;" xml:space="preserve">
<style type="text/css">
	.st0{fill:#252D3F;}
	.st1{font-family:'ArialMT';}
	.st2{font-size:10px;}
</style>
<g>
	<g>
		<text transform="matrix(1 0 0 1 14.5103 17.6675)" class="st0 st1 st2">&gt; 0</text>
	</g>
	<g>
		<rect y="13.5" class="st0" width="5" height="1"/>
	</g>
	<rect x="5" y="10.5" class="st0" width="1" height="7"/>
	<g>
		<rect x="20.5" y="8.8" transform="matrix(0.7882 0.6154 -0.6154 0.7882 12.0575 -16.4248)" class="st0" width="18.8" height="1"/>
		<g>
			<g>
				<rect y="2.5" class="st0" width="19" height="1"/>
			</g>
			<g>
				<rect y="26.5" class="st0" width="19" height="1"/>
			</g>
			<path class="st0" d="M20.5,0.5C19.1,0.5,18,1.6,18,3s1.1,2.5,2.5,2.5S23,4.4,23,3S21.9,0.5,20.5,0.5z M20.5,4.5
				C19.7,4.5,19,3.8,19,3c0-0.8,0.7-1.5,1.5-1.5S22,2.2,22,3C22,3.8,21.3,4.5,20.5,4.5z"/>
			<path class="st0" d="M20.5,24.5c-1.4,0-2.5,1.1-2.5,2.5s1.1,2.5,2.5,2.5S23,28.4,23,27S21.9,24.5,20.5,24.5z M20.5,28.5
				c-0.8,0-1.5-0.7-1.5-1.5c0-0.8,0.7-1.5,1.5-1.5S22,26.2,22,27C22,27.8,21.3,28.5,20.5,28.5z"/>
			<rect x="37" y="14.5" class="st0" width="8" height="1"/>
		</g>
	</g>
</g>
</svg>
