<?xml version="1.0" encoding="UTF-8"?>
<svg width="36px" height="36px" viewBox="0 0 36 36" version="1.1" xmlns="http://www.w3.org/2000/svg" xmlns:xlink="http://www.w3.org/1999/xlink">
    <title>time</title>
    <g id="控件" stroke="none" stroke-width="1" fill="none" fill-rule="evenodd">
        <g id="time" transform="translate(0.000000, 0.000000)" fill-rule="nonzero">
            <g id="编组">
                <circle id="椭圆形" fill="#FFFFFF" cx="18" cy="18" r="17.5"></circle>
                <path d="M18,1 C27.4,1 35,8.6 35,18 C35,27.4 27.4,35 18,35 C8.6,35 1,27.4 1,18 C1,8.6 8.6,1 18,1 M18,0 C8.1,0 0,8.1 0,18 C0,27.9 8.1,36 18,36 C27.9,36 36,27.9 36,18 C36,8.1 27.9,0 18,0 L18,0 Z" id="形状" fill="#003756"></path>
            </g>
            <circle id="椭圆形" fill="#FFFFFF" cx="18" cy="18" r="15"></circle>
            <g id="编组" transform="translate(17.000000, 7.000000)" fill="#35405C">
                <rect id="矩形" x="0" y="0" width="2" height="11"></rect>
                <rect id="矩形" x="0" y="11" width="8" height="2"></rect>
            </g>
        </g>
    </g>
</svg>